<svg id="Layer_1" data-name="Layer 1" xmlns="http://www.w3.org/2000/svg" viewBox="0 0 603.21 187.3"><title>logo for green background</title><path d="M23.61,155.18a206.94,206.94,0,0,1,24-1.75,196.28,196.28,0,0,1,25,2.11l-2.67,11.33,5.46,5.45-4.55-1.62c-3.84-1.52-7.76-2.87-9.16-2.91A6.25,6.25,0,0,0,58,168.9a9.94,9.94,0,0,1-3.9,1.46c-2.16.26-4.15-1.12-5.87-2.35-1.16-.82-2.35-1.66-3.2-1.7s-2.91,1.15-4.48,2.1c-2.21,1.34-4.28,2.59-6,2.4a18,18,0,0,1-3-.72c-2.12-.62-8.66-1.57-12.84,1.71L23.33,167l-2-11.34Z" transform="translate(-18.79 -150.98)" style="fill:#58595b"/><path d="M49.56,322.17a77.33,77.33,0,0,0,19.93-2.25c1-.25,1.81-.49,2.61-.73l-.81-2.93c-.12,0-.21.06-.33.09a81.4,81.4,0,0,1-21.4,2.47A87,87,0,0,1,28,316.2c-1-.24-1.81-.49-2.6-.72-.15,1-.29,2-.43,3,1.12.36,2.56.79,4.24,1.26a83.75,83.75,0,0,0,20.34,2.46" transform="translate(-18.79 -150.98)" style="fill:#58595b"/><path d="M72.93,323.61c-.62.19-1.26.38-2,.56a81.33,81.33,0,0,1-21.4,2.48A87.62,87.62,0,0,1,28,324c-1.34-.35-2.72-.68-3.72-1-.93,6.27-1.28,8.8-1.28,8.8S30.67,336,48.55,336s26.72-3.5,26.72-3.5-.59-2.62-2.34-8.91" transform="translate(-18.79 -150.98)" style="fill:#58595b"/><path d="M56.87,224.9l-.09,0H33.36a171.8,171.8,0,0,1,1.25,19.81c0,2.55-.75,9.2-1.82,17.76H58c.15,0,1.16,0,1.31,0-.67-2.41-3.34-15.82-3.51-19a90.78,90.78,0,0,1,1.12-18.55" transform="translate(-18.79 -150.98)" style="fill:#58595b"/><path d="M59.72,225.41h0c-.62,1.82-.66,4.25-1.11,7.45.51-.17.34-.07.91-.07,4.85,0,8.18,4.71,8.18,10.51s-2.9,10-6.61,10.37l-1.36.13C60.34,256.56,61,259,61.6,261c7.07-1.12,12.56-8.58,12.56-17.6,0-9.85-6.42-18-14.44-18" transform="translate(-18.79 -150.98)" style="fill:#58595b"/><path d="M32.3,266.72C30.45,281,27.86,297,25.87,310.6c1,.3,2.06.63,3.35,1A83.32,83.32,0,0,0,49.56,314a77.4,77.4,0,0,0,19.93-2.24l1-.28c-3.83-14-7.51-30.81-10.57-44.8Z" transform="translate(-18.79 -150.98)" style="fill:#58595b"/><path d="M57.62,221l10.56-45.38s-4-2.24-6.2-2.54-4.52,2.68-8.33,2.3c-4.7-.46-5-1.41-6.71-2.55a3.81,3.81,0,0,0-3.93-.1c-1.63,1.1-5,3.05-6.63,3.3s-5.51-1.84-6.93-2.33c-2.45-.84-5.41.59-5.41.59s6.21,26,8.84,46.71Z" transform="translate(-18.79 -150.98)" style="fill:#58595b"/><path d="M81.79,155.18a206.94,206.94,0,0,1,24-1.75,196.28,196.28,0,0,1,25,2.11l-2.67,11.33,5.46,5.45L129,170.7c-3.83-1.52-7.76-2.87-9.16-2.91a6.25,6.25,0,0,0-3.62,1.11,9.94,9.94,0,0,1-3.9,1.46c-2.16.26-4.14-1.12-5.87-2.35-1.15-.82-2.35-1.66-3.2-1.7s-2.9,1.15-4.48,2.1c-2.21,1.34-4.28,2.59-6,2.4a18,18,0,0,1-3-.72c-2.12-.62-8.66-1.57-12.84,1.71L81.51,167l-2-11.34Z" transform="translate(-18.79 -150.98)" style="fill:#58595b"/><path d="M107.74,322.17a77.33,77.33,0,0,0,19.93-2.25c1-.25,1.81-.49,2.61-.73l-.81-2.93c-.12,0-.21.06-.33.09a81.4,81.4,0,0,1-21.4,2.47,87,87,0,0,1-21.55-2.62c-1-.24-1.81-.49-2.6-.72-.15,1-.29,2-.43,3,1.12.36,2.56.79,4.24,1.26a83.75,83.75,0,0,0,20.34,2.46" transform="translate(-18.79 -150.98)" style="fill:#58595b"/><path d="M131.11,323.61c-.62.19-1.26.38-2,.56a81.33,81.33,0,0,1-21.4,2.48A87.46,87.46,0,0,1,86.19,324c-1.35-.35-2.73-.68-3.73-1-.93,6.27-1.28,8.8-1.28,8.8S88.85,336,106.73,336s26.72-3.5,26.72-3.5-.59-2.62-2.34-8.91" transform="translate(-18.79 -150.98)" style="fill:#58595b"/><path d="M115.05,224.9l-.09,0H91.54a171.8,171.8,0,0,1,1.25,19.81c0,2.55-.75,9.2-1.82,17.76h25.16c.15,0,1.16,0,1.31,0-.67-2.41-3.34-15.82-3.51-19a90.78,90.78,0,0,1,1.12-18.55" transform="translate(-18.79 -150.98)" style="fill:#58595b"/><path d="M117.9,225.41h-.05c-.62,1.82-.66,4.25-1.11,7.45.51-.17.34-.07.91-.07,4.85,0,8.18,4.71,8.18,10.51s-2.9,10-6.61,10.37l-1.36.13c.66,2.76,1.32,5.19,1.92,7.22,7.07-1.12,12.56-8.58,12.56-17.6,0-9.85-6.42-18-14.44-18" transform="translate(-18.79 -150.98)" style="fill:#58595b"/><path d="M90.48,266.72C88.63,281,86,297,84.05,310.6c1,.3,2.06.63,3.35,1A83.32,83.32,0,0,0,107.74,314a77.4,77.4,0,0,0,19.93-2.24l1-.28c-3.82-14-7.51-30.81-10.57-44.8Z" transform="translate(-18.79 -150.98)" style="fill:#58595b"/><path d="M115.8,221l10.56-45.38s-4-2.24-6.2-2.54-4.52,2.68-8.33,2.3c-4.7-.46-5-1.41-6.71-2.55a3.81,3.81,0,0,0-3.93-.1c-1.63,1.1-5,3.05-6.63,3.3s-5.51-1.84-6.93-2.33c-2.45-.84-5.41.59-5.41.59s6.21,26,8.84,46.71Z" transform="translate(-18.79 -150.98)" style="fill:#58595b"/><path d="M140,155.18a206.94,206.94,0,0,1,24-1.75,196.28,196.28,0,0,1,25,2.11l-2.67,11.33,5.46,5.45-4.55-1.62c-3.83-1.52-7.76-2.87-9.16-2.91a6.25,6.25,0,0,0-3.62,1.11,9.94,9.94,0,0,1-3.9,1.46c-2.16.26-4.14-1.12-5.87-2.35-1.15-.82-2.35-1.66-3.2-1.7s-2.9,1.15-4.48,2.1c-2.21,1.34-4.28,2.59-6,2.4a18,18,0,0,1-3-.72c-2.12-.62-8.66-1.57-12.84,1.71l4.54-4.84-2-11.34Z" transform="translate(-18.79 -150.98)" style="fill:#58595b"/><path d="M165.92,322.17a77.33,77.33,0,0,0,19.93-2.25c1-.25,1.81-.49,2.61-.73l-.81-2.93c-.12,0-.21.06-.33.09a81.4,81.4,0,0,1-21.4,2.47,87,87,0,0,1-21.55-2.62c-1-.24-1.81-.49-2.6-.72-.15,1-.29,2-.43,3,1.12.36,2.56.79,4.24,1.26a83.75,83.75,0,0,0,20.34,2.46" transform="translate(-18.79 -150.98)" style="fill:#58595b"/><path d="M189.29,323.61c-.62.19-1.26.38-2,.56a81.33,81.33,0,0,1-21.4,2.48A87.46,87.46,0,0,1,144.37,324c-1.35-.35-2.73-.68-3.73-1-.93,6.27-1.28,8.8-1.28,8.8S147,336,164.91,336s26.72-3.5,26.72-3.5-.59-2.62-2.34-8.91" transform="translate(-18.79 -150.98)" style="fill:#58595b"/><path d="M173.23,224.9l-.09,0H149.72A171.8,171.8,0,0,1,151,244.68c0,2.55-.75,9.2-1.82,17.76h25.16c.15,0,1.16,0,1.31,0-.67-2.41-3.34-15.82-3.51-19a90.78,90.78,0,0,1,1.12-18.55" transform="translate(-18.79 -150.98)" style="fill:#58595b"/><path d="M176.08,225.41H176c-.62,1.82-.66,4.25-1.11,7.45.51-.17.34-.07.91-.07,4.85,0,8.18,4.71,8.18,10.51s-2.9,10-6.61,10.37l-1.36.13c.66,2.76,1.32,5.19,1.92,7.22,7.07-1.12,12.56-8.58,12.56-17.6,0-9.85-6.42-18-14.44-18" transform="translate(-18.79 -150.98)" style="fill:#58595b"/><path d="M148.66,266.72c-1.85,14.28-4.44,30.23-6.43,43.88,1,.3,2.06.63,3.35,1A83.32,83.32,0,0,0,165.92,314a77.4,77.4,0,0,0,19.93-2.24l1-.28c-3.82-14-7.51-30.81-10.57-44.8Z" transform="translate(-18.79 -150.98)" style="fill:#58595b"/><path d="M174,221l10.56-45.38s-4-2.24-6.2-2.54-4.52,2.68-8.33,2.3c-4.69-.46-5-1.41-6.71-2.55a3.81,3.81,0,0,0-3.93-.1c-1.63,1.1-5,3.05-6.63,3.3s-5.5-1.84-6.93-2.33c-2.45-.84-5.41.59-5.41.59s6.21,26,8.84,46.71Z" transform="translate(-18.79 -150.98)" style="fill:#58595b"/><path d="M334.21,251.8a36.11,36.11,0,0,0-19.16-15.73,40.52,40.52,0,0,0,14.48-14.73,41.84,41.84,0,0,0,5.53-21.52q0-14.1-4.89-22.91a38.07,38.07,0,0,0-12.78-13.85,48.35,48.35,0,0,0-17.67-6.79,95.85,95.85,0,0,0-19.59-1.51H209V334.5h73a92.07,92.07,0,0,0,23-2.77,48.9,48.9,0,0,0,18.85-9.18,44.23,44.23,0,0,0,12.66-17.12q4.68-10.71,4.69-26.81,0-15.36-7-26.82M248.63,191h30.66a18.14,18.14,0,0,1,11.17,3.77q5,3.78,5,13.6a18.38,18.38,0,0,1-1.59,8.06,16.41,16.41,0,0,1-3.94,5.28,14.4,14.4,0,0,1-5.22,2.9,18.39,18.39,0,0,1-5.42.88H248.63Zm47.05,101.45q-6,4.53-15.33,4.53H248.63V255.71h31.72a24.38,24.38,0,0,1,15.11,4.65q6.18,4.67,6.18,16.49,0,11.08-6,15.61" transform="translate(-18.79 -150.98)" style="fill:#fff"/><path d="M389.09,274.08Q389.74,290,397.4,296t20.43,6a39.3,39.3,0,0,0,8.84-1,25.19,25.19,0,0,0,7.77-3.14,16.86,16.86,0,0,0,5.53-5.67,16.25,16.25,0,0,0,2.13-8.56,13.4,13.4,0,0,0-3.72-9.82,32.53,32.53,0,0,0-9.9-6.54,95.78,95.78,0,0,0-14-4.91q-7.77-2.14-16.07-4.91a154.4,154.4,0,0,1-16.07-6.55,54.49,54.49,0,0,1-14.27-9.69,45.67,45.67,0,0,1-10.22-14.6q-3.93-8.69-3.93-21,0-14.6,5.63-25.05a50.44,50.44,0,0,1,14.59-17,60.52,60.52,0,0,1,20-9.57,82,82,0,0,1,21.72-3,74.68,74.68,0,0,1,22.25,3.4,56.18,56.18,0,0,1,19.47,10.45,52.89,52.89,0,0,1,13.84,18q5.32,10.95,5.33,26h-39.6a20.57,20.57,0,0,0-1.92-10.2,18.25,18.25,0,0,0-5.64-6.67,23.67,23.67,0,0,0-8-3.65,36.53,36.53,0,0,0-8.95-1.13,30.13,30.13,0,0,0-6.6.76A19.22,19.22,0,0,0,400,190.5a14.78,14.78,0,0,0-4.58,4.66,13.89,13.89,0,0,0-1.8,7.42,10.84,10.84,0,0,0,3.72,8.57,34.61,34.61,0,0,0,10,5.79,113.07,113.07,0,0,0,14.15,4.53q7.88,2,16.19,4.78a128.36,128.36,0,0,1,16.18,6.67,56.69,56.69,0,0,1,14.05,9.82,45.16,45.16,0,0,1,10,14.6q3.84,8.69,3.83,20.77,0,17.13-5.64,28.7a49.72,49.72,0,0,1-14.9,18.5A59.38,59.38,0,0,1,440,335.26a99.41,99.41,0,0,1-24.47,3,87,87,0,0,1-25-3.53,56.93,56.93,0,0,1-21-11.32,55.69,55.69,0,0,1-14.59-19.89q-5.42-12.09-5.43-29.46Z" transform="translate(-18.79 -150.98)" style="fill:#fff"/><path d="M494.9,154.76h72.17a69.82,69.82,0,0,1,20.55,3,45.85,45.85,0,0,1,17.56,9.94,49.19,49.19,0,0,1,12.25,18Q622,196.81,622,212.66q0,16.6-3.83,28.45t-11.08,19.25a42.92,42.92,0,0,1-17.34,10.83,71.08,71.08,0,0,1-22.68,3.4H534.5V334.5H494.9Zm39.6,83.58h26.61q9.36,0,15.33-5t6-17.37q0-12.84-6.06-18.25t-15.23-5.41H534.5Z" transform="translate(-18.79 -150.98)" style="fill:#fff"/></svg>